<?xml version="1.0" encoding="UTF-8"?>
<svg width="1012px" height="1012px" viewBox="0 0 1012 1012" version="1.1" xmlns="http://www.w3.org/2000/svg" xmlns:xlink="http://www.w3.org/1999/xlink">
    <!-- Generator: Sketch 51.3 (57544) - http://www.bohemiancoding.com/sketch -->
    <title>Group 3</title>
    <desc>Created with Sketch.</desc>
    <defs></defs>
    <g id="Page-1" stroke="none" stroke-width="1" fill="none" fill-rule="evenodd" opacity="0.6">
        <g id="Group-3" transform="translate(25.000000, 25.000000)">
            <g id="设计师" transform="translate(260.000000, 260.000000)" fill="#000000" fill-rule="nonzero">
                <rect id="Rectangle-path" opacity="0" x="0" y="0" width="442" height="442"></rect>
                <path d="M154.258,279.22133 C154.258,284.813838 151.827,289.376147 146.965,292.908257 C142.103,296.440367 135.988667,299.825306 128.622,303.063073 C121.255333,306.300841 113.299333,309.980122 104.754,314.100917 C96.2086667,318.221713 88.4,323.81422 81.328,330.87844 L72.93,330.87844 C60.8486667,330.87844 50.3143333,329.627485 41.327,327.125573 C32.3396667,324.623662 24.752,321.312309 18.564,317.191514 C12.376,313.070719 7.735,308.434824 4.641,303.28383 C1.547,298.132836 3.57815629e-15,292.908257 0,287.610092 C0,281.428899 3.24133333,276.425076 9.724,272.598624 C16.2066667,268.772171 23.3523333,265.240061 31.161,262.002294 C38.9696667,258.764526 46.1153333,255.379587 52.598,251.847477 C59.0806667,248.315367 62.322,243.753058 62.322,238.16055 C62.322,232.568043 60.554,227.417049 57.018,222.707569 C53.482,217.998089 49.5776667,212.626338 45.305,206.592317 C41.0323333,200.558295 37.128,193.494075 33.592,185.399656 C30.056,177.305237 28.288,166.929664 28.288,154.272936 C28.288,145.148318 29.2456667,136.318043 31.161,127.78211 C33.0763333,119.246177 35.9493333,111.740443 39.78,105.264908 C43.6106667,98.7893731 48.4726667,93.6383792 54.366,89.8119266 C60.2593333,85.985474 67.184,84.0722477 75.14,84.0722477 C85.748,84.0722477 94.588,85.8383028 101.66,89.3704128 C99.892,99.9667431 99.008,111.004587 99.008,122.483945 C99.008,141.027523 100.555,156.774847 103.649,169.725917 C106.743,182.676988 110.647333,193.862003 115.362,203.280963 C110.942,209.167813 106.816667,214.686735 102.986,219.837729 C99.1553333,224.988723 97.24,231.09633 97.24,238.16055 C97.24,241.987003 99.3026667,245.298356 103.428,248.09461 C107.553333,250.890864 112.489,253.539946 118.235,256.041858 C123.981,258.543769 130.095333,261.119266 136.578,263.768349 C143.060667,266.417431 148.806667,269.213685 153.816,272.15711 C154.110667,273.628823 154.258,275.983563 154.258,279.22133 Z M373.49,238.16055 C373.49,241.398318 375.184333,244.341743 378.573,246.990826 C381.961667,249.639908 386.160667,252.14182 391.17,254.49656 C396.179333,256.8513 401.704333,259.132454 407.745,261.340023 C413.785667,263.547592 419.310667,265.902332 424.32,268.404243 C429.329333,270.906154 433.528333,273.702408 436.917,276.793005 C440.305667,279.883601 442,283.489297 442,287.610092 C442,294.085627 439.79,299.825306 435.37,304.829128 C430.95,309.832951 425.056667,314.027332 417.69,317.412271 C410.323333,320.797209 401.851667,323.372706 392.275,325.138761 C382.698333,326.904817 372.900667,327.935015 362.882,328.229358 C354.631333,322.63685 345.791333,318.295298 336.362,315.204702 C326.932667,312.114106 318.019,309.317852 309.621,306.81594 C301.223,304.314029 294.003667,301.517775 287.963,298.427179 C281.922333,295.336583 278.312667,290.847859 277.134,284.961009 C278.312667,279.368502 282.143333,274.806193 288.626,271.274083 C295.108667,267.741972 302.107,264.430619 309.621,261.340023 C317.135,258.249427 323.912333,254.938073 329.953,251.405963 C335.993667,247.873853 339.014,243.458716 339.014,238.16055 C339.014,231.979358 336.656667,226.313265 331.942,221.162271 C327.227333,216.011277 322.365333,210.050841 317.356,203.280963 C322.070667,192.978976 325.975,180.763761 329.069,166.635321 C332.163,152.506881 333.71,135.876529 333.71,116.744266 C333.71,112.623471 333.489,108.502676 333.047,104.381881 C332.605,100.261086 332.089333,96.1402905 331.5,92.0194954 C339.161333,86.7213303 346.086,84.0722477 352.274,84.0722477 C366.123333,84.0722477 377.173333,86.3534021 385.424,90.915711 C393.674667,95.4780199 399.936333,101.144113 404.209,107.913991 C408.481667,114.683869 411.281,121.968846 412.607,129.768922 C413.933,137.568998 414.596,144.706804 414.596,151.182339 C414.596,164.427752 412.459667,175.097668 408.187,183.192087 C403.914333,191.286506 399.199667,198.277141 394.043,204.163991 C388.886333,210.050841 384.171667,215.496177 379.899,220.5 C375.626333,225.503823 373.49,231.390673 373.49,238.16055 Z M249.288,284.961009 C249.288,291.142202 252.013667,296.587538 257.465,301.297018 C262.916333,306.006498 269.767333,310.495222 278.018,314.763188 C286.268667,319.031154 295.256,323.078364 304.98,326.904817 C314.704,330.731269 323.691333,334.92565 331.942,339.487959 C340.192667,344.050268 347.043667,349.05409 352.495,354.499427 C357.946333,359.944763 360.672,366.346713 360.672,373.705275 C360.672,378.709098 356.546667,383.492164 348.296,388.054472 C340.045333,392.616781 329.142667,396.811162 315.588,400.637615 C302.033333,404.464067 286.416,407.481078 268.736,409.688647 C251.056,411.896216 232.934,413 214.37,413 C193.154,413 174.369,411.896216 158.015,409.688647 C141.661,407.481078 127.959,404.537653 116.909,400.858372 C105.859,397.17909 97.461,392.984709 91.715,388.275229 C85.969,383.565749 83.096,378.856269 83.096,374.146789 C83.096,366.788226 85.8216667,360.386277 91.273,354.94094 C96.7243333,349.495604 103.575333,344.565367 111.826,340.150229 C120.076667,335.735092 128.990333,331.687882 138.567,328.008601 C148.143667,324.32932 157.057333,320.429281 165.308,316.308486 C173.558667,312.187691 180.409667,307.698968 185.861,302.842317 C191.312333,297.985665 194.038,292.172401 194.038,285.402523 C194.038,278.632645 192.638333,272.304281 189.839,266.417431 C187.039667,260.530581 183.503667,254.570145 179.231,248.536124 C174.958333,242.502102 170.317333,235.952982 165.308,228.888761 C160.298667,221.824541 155.657667,213.877294 151.385,205.047018 C147.112333,196.216743 143.576333,186.061927 140.777,174.582569 C137.977667,163.103211 136.578,149.857798 136.578,134.84633 C136.578,102.174312 142.692333,76.1985856 154.921,56.9191514 C167.149667,37.6397171 186.082,28 211.718,28 C233.228667,28 250.172,31.2377676 262.548,37.7133028 C274.924,44.1888379 284.279667,52.5040138 290.615,62.6588303 C296.950333,72.8136468 300.928333,83.9986621 302.549,96.2138761 C304.169667,108.42909 304.98,120.423547 304.98,132.197248 C304.98,148.091743 303.580333,161.77867 300.781,173.258028 C297.981667,184.737385 294.519333,194.745031 290.394,203.280963 C286.268667,211.816896 281.848667,219.396216 277.134,226.018922 C272.419333,232.641628 267.999333,238.969992 263.874,245.004014 C259.748667,251.038035 256.286333,257.219228 253.487,263.547592 C250.687667,269.875956 249.288,277.013761 249.288,284.961009 Z" id="Shape"></path>
            </g>
            <g id="Group" stroke="#000000" stroke-width="50">
                <circle id="Oval" cx="481" cy="481" r="481"></circle>
            </g>
        </g>
    </g>
</svg>