<?xml version="1.0" encoding="UTF-8"?>
<svg width="1012px" height="1012px" viewBox="0 0 1012 1012" version="1.1" xmlns="http://www.w3.org/2000/svg" xmlns:xlink="http://www.w3.org/1999/xlink">
    <!-- Generator: Sketch 51.3 (57544) - http://www.bohemiancoding.com/sketch -->
    <title>Group 4</title>
    <desc>Created with Sketch.</desc>
    <defs></defs>
    <g id="Page-1" stroke="none" stroke-width="1" fill="none" fill-rule="evenodd" opacity="0.6">
        <g id="Group-4" transform="translate(25.000000, 25.000000)">
            <g id="weibo" transform="translate(204.000000, 222.000000)" fill="#000000" fill-rule="nonzero">
                <rect id="Rectangle-path" opacity="0" x="0" y="0" width="565" height="565"></rect>
                <path d="M213.263554,372.192716 C217.106057,366.103076 218.112427,359.923882 216.282664,353.655135 C214.4529,347.386387 210.335932,342.908711 203.93176,340.222105 C197.710564,337.714606 191.031927,337.625052 183.89585,339.953444 C176.759772,342.281836 171.270482,346.401299 167.427978,352.311832 C163.402499,358.401472 162.213152,364.535889 163.85994,370.715083 C165.506727,376.894277 169.440718,381.41673 175.661914,384.282443 C181.88311,387.148157 188.698979,387.37204 196.109521,384.954095 C203.520063,382.53615 209.238074,378.282357 213.263554,372.192716 Z M239.063219,339.684783 C240.52703,337.356392 240.847239,334.983223 240.023845,332.565278 C239.200451,330.147332 237.599408,328.490592 235.220716,327.595056 C232.659047,326.699521 230.051634,327.147289 227.398477,328.938359 C224.74532,330.72943 222.778324,332.38617 221.49749,333.908581 C218.386892,339.4609 219.576238,343.490809 225.065528,345.998308 C227.627197,346.893843 230.280354,347.341611 233.025,347.341611 C235.769645,347.341611 237.782385,345.68487 239.063219,342.37139 L239.063219,339.684783 Z M286.820046,368.431468 C278.586111,386.700389 264.130979,400.133419 243.454652,408.730558 C222.778324,417.327698 202.284973,418.40234 181.974598,411.954486 C162.396129,405.864845 148.901623,394.536323 141.491081,377.968919 C134.080539,361.401516 134.675212,344.610228 143.2751,327.595056 C151.874989,310.938099 165.735447,298.490158 184.856476,290.251233 C203.977504,282.012308 223.235765,280.31079 242.631258,285.146681 C262.941633,290.340786 277.442509,301.042434 286.133885,317.251623 C294.825262,333.460813 295.053982,350.520761 286.820046,368.431468 Z M372.452978,325.445772 C370.806191,308.251493 362.663743,293.027392 348.025635,279.773469 C333.387527,266.519546 314.312243,256.758211 290.799782,250.489463 C267.287321,244.220716 242.173817,242.340092 215.45927,244.847591 C174.655544,248.967053 140.850664,261.638878 114.044628,282.863066 C87.2385932,304.087254 75.11641,327.774163 77.6780789,353.923795 C79.324866,371.118074 87.4673136,386.342175 102.105422,399.596098 C116.74353,412.850021 135.818814,422.611356 159.331275,428.880103 C182.843736,435.148851 207.95724,437.029475 234.671787,434.521976 C275.475513,430.402514 309.280393,417.730688 336.086429,396.506501 C362.892464,375.282313 375.014647,351.595404 372.452978,325.445772 Z M456.988052,326.520414 C456.988052,338.699695 453.602989,351.192413 446.832864,363.998568 C440.062739,376.804723 430.090528,389.073558 416.916231,400.805071 C403.741934,412.536584 388.326176,423.059124 370.668959,432.372691 C353.011741,441.686259 332.335413,449.119202 308.639976,454.671521 C284.944539,460.22384 260.196988,463 234.397322,463 C208.597657,463 183.438409,459.999957 158.919578,453.99987 C134.400747,447.999783 112.397841,439.671304 92.91086,429.014434 C73.4238788,418.357563 57.7336568,404.83498 45.8401941,388.446683 C33.9467314,372.058386 28,354.192456 28,334.848893 C28,314.25158 34.3584281,292.310964 47.0752844,269.027045 C59.7921407,245.743126 77.8610553,222.638314 101.282028,199.71261 C132.205031,169.443515 163.448243,148.308881 195.011663,136.308707 C226.575083,124.308534 249.126918,124.935409 262.667168,138.189332 C274.560631,149.652184 276.390395,168.368873 268.156459,194.339398 C267.424553,196.846897 267.333065,198.637967 267.881994,199.71261 C268.430923,200.787252 269.345805,201.414127 270.62664,201.593234 C271.907474,201.772341 273.234052,202.220109 274.606375,202.936537 C275.978698,203.652965 277.213788,203.339528 278.311646,201.996225 L279.958433,201.458904 C305.392146,190.891587 327.898237,185.607928 347.476706,185.607928 C367.055176,185.607928 381.052866,191.070694 389.469779,201.996225 C397.703714,213.27997 397.703714,229.220499 389.469779,249.817812 C389.103826,252.146204 388.692129,253.937275 388.234688,255.191024 C387.777247,256.444774 388.188944,257.564193 389.469779,258.549282 C390.750613,259.53437 391.848471,260.206022 392.763353,260.564236 C393.678235,260.92245 395.233534,261.459771 397.42925,262.1762 C407.858902,265.400127 417.282184,269.609143 425.699096,274.803248 C434.116008,279.997353 441.435062,287.295966 447.656258,296.699087 C453.877454,306.102208 456.988052,316.535195 456.988052,327.998047 L456.988052,326.520414 Z M436.677677,158.876198 C444.362683,167.29423 449.348789,177.010789 451.635993,188.025873 C453.923198,199.040958 453.328525,209.563498 449.851974,219.593494 C448.388163,223.712957 445.689262,226.757777 441.75527,228.727955 C437.821279,230.698132 433.750055,231.056347 429.541599,229.802597 C425.333143,228.369741 422.222545,225.727911 420.209805,221.877109 C418.197065,218.026307 417.831113,214.041175 419.111947,209.921713 C422.771474,198.637967 420.575758,188.697525 412.524799,180.100386 C404.473839,171.503246 394.684605,168.368873 383.157094,170.697265 C378.765662,171.5928 374.648694,170.876372 370.806191,168.54798 C366.963688,166.219588 364.676483,162.906107 363.944578,158.607537 C363.029696,154.308968 363.761601,150.323836 366.140294,146.652141 C368.518987,142.980446 371.904049,140.696831 376.295481,139.801295 C387.274062,137.472903 398.161155,137.965448 408.95676,141.278929 C419.752364,144.592409 428.99267,150.458166 436.677677,158.876198 Z M486.355756,115.08452 C502.274698,132.278798 512.567118,152.20446 517.233015,174.861504 C521.898912,197.518548 520.663821,219.145727 513.527744,239.743039 C511.880956,244.57893 508.770358,248.161072 504.19595,250.489463 C499.621541,252.817855 494.864156,253.17607 489.923794,251.564106 C484.983433,249.952142 481.323906,246.907322 478.945213,242.429645 C476.566521,237.951969 476.10908,233.295185 477.572891,228.459294 C482.696229,213.772514 483.61111,198.369307 480.317536,182.24967 C477.023962,166.130034 469.704908,151.980576 458.360374,139.801295 C447.01584,127.442908 433.475591,118.890545 417.739625,114.144208 C402.003658,109.39787 386.176204,108.636665 370.257262,111.860593 C365.133924,112.935235 360.376539,112.084476 355.985107,109.308317 C351.593674,106.532157 348.849029,102.636579 347.751171,97.6215807 C346.653313,92.6065828 347.52245,87.9945758 350.358584,83.7855597 C353.194717,79.5765436 357.174453,76.9347143 362.297791,75.8600719 C384.803882,71.2032881 407.126996,72.2331538 429.267135,78.9496689 C451.407273,85.6661839 470.436813,97.7111343 486.355756,115.08452 Z" id="Shape"></path>
            </g>
            <circle id="Oval" stroke="#000000" stroke-width="50" cx="481" cy="481" r="481"></circle>
        </g>
    </g>
</svg>