<?xml version="1.0" encoding="UTF-8"?>
<svg width="1012px" height="1012px" viewBox="0 0 1012 1012" version="1.1" xmlns="http://www.w3.org/2000/svg" xmlns:xlink="http://www.w3.org/1999/xlink">
    <!-- Generator: Sketch 51.3 (57544) - http://www.bohemiancoding.com/sketch -->
    <title>Group 2</title>
    <desc>Created with Sketch.</desc>
    <defs></defs>
    <g id="Page-1" stroke="none" stroke-width="1" fill="none" fill-rule="evenodd" opacity="0.6">
        <g id="Group-2" transform="translate(25.000000, 25.000000)">
            <g id="icon_论坛-面" transform="translate(278.000000, 293.000000)" fill="#000000" fill-rule="nonzero">
                <rect id="Rectangle-path" opacity="0" x="0" y="0" width="415" height="415"></rect>
                <path d="M326.953977,83.9987196 L32.0115908,83.9987196 C14.1760227,83.9987196 0,96.8590416 0,114.688125 L0,307.706095 C0,316.672493 2.66920462,323.856925 8.95079538,330.287086 C15.2229546,336.69839 23.55125,338.565211 32.5303408,338.565211 L72.9645454,338.565211 L135.167387,401 L197.360795,338.565211 L326.944545,338.565211 C335.791591,338.565211 343.648295,336.528679 349.807273,330.173945 C355.96625,323.82864 358.409091,316.795062 358.409091,307.960662 L358.409091,114.688125 C358.409091,96.8590416 344.780113,83.9987196 326.953977,83.9987196 Z M93.9503408,231.78871 C86.6381696,231.792079 79.8796469,227.895613 76.2206431,221.567074 C72.5616392,215.238535 72.5580439,207.439378 76.2112114,201.107471 C79.8643789,194.775563 86.6193061,190.872872 93.9314773,190.869504 C101.243648,190.866136 108.002171,194.762601 111.661174,201.09114 C115.320178,207.419679 115.323773,215.218836 111.670606,221.550744 C108.017439,227.882651 101.262512,231.785342 93.9503408,231.78871 Z M179.478068,231.78871 C172.165897,231.792079 165.407374,227.895613 161.74837,221.567074 C158.089367,215.238535 158.085771,207.439378 161.738939,201.107471 C165.392106,194.775563 172.147033,190.872872 179.459205,190.869504 C190.762842,190.864297 199.930473,200.020152 199.935682,211.319679 C199.940891,222.619206 190.781705,231.783503 179.478068,231.78871 Z M265.005795,231.78871 C257.693624,231.792079 250.935102,227.895613 247.276098,221.567074 C243.617094,215.238535 243.613498,207.439378 247.266666,201.107471 C250.919833,194.775563 257.674761,190.872872 264.986932,190.869504 C276.290569,190.864297 285.4582,200.020152 285.463409,211.319679 C285.468618,222.619206 276.309432,231.783503 265.005795,231.78871 Z M381.375568,18 L86.4331819,18 C68.3901135,18 56.5909092,36.0365072 56.5909092,54.0635859 L56.5909092,65.1419427 L345.817613,65.1419427 C363.64375,65.1419427 377.272727,78.0022647 377.272727,95.8313473 L377.272727,281.994879 L381.630227,281.994879 C399.569545,281.994879 415,265.004923 415,247.081557 L415,54.0635859 C415,36.0365072 399.409205,18 381.375568,18 Z" id="Shape"></path>
            </g>
            <circle id="Oval" stroke="#000000" stroke-width="50" cx="481" cy="481" r="481"></circle>
        </g>
    </g>
</svg>